PathFileType  4	(X/Y/Z) C:\Users\antoi\Documents\MyRepositories\mobilecap\ResultsAnalysis
DataRate	CameraRate	NumFrames	NumMarkers	Units	OrigDataRate	OrigDataStartFrame	OrigNumFrames
100.0	100.0	6	51	mm	100.0	131	260
Frame#	Time	r_knee			r_shank_antsup			r_ankle			r_calc			r_5meta			r_toe			L_knee			L_shank_antsup			L_ankle			L_calc			L_5meta			L_toe			r_sh2			r_sh3			r_sh4			L_sh2			L_sh3			r_thigh1			r_thigh2			r_thigh3			r_thigh4			r_thigh5			L_thigh1			L_thigh2			L_thigh3			L_thigh4			r.ASIS			r.PSIS			L.ASIS			L.PSIS			C7			R_Shoulder			L_Shoulder			R_Sternum			L_Sternum			R_humerus			R_elbow_med			R_elbow_lat			R_forearm			R_wrist_radius			R_wrist_ulna			L_humerus			L_elbow_med			L_elbow_lat			L_forearm			L_wrist_radius			L_wrist_ulna			R_HJC			L_HJC			R_HJC_reg			L_HJC_reg			
		X1	Y1	Z1	X2	Y2	Z2	X3	Y3	Z3	X4	Y4	Z4	X5	Y5	Z5	X6	Y6	Z6	X7	Y7	Z7	X8	Y8	Z8	X9	Y9	Z9	X10	Y10	Z10	X11	Y11	Z11	X12	Y12	Z12	X13	Y13	Z13	X14	Y14	Z14	X15	Y15	Z15	X16	Y16	Z16	X17	Y17	Z17	X18	Y18	Z18	X19	Y19	Z19	X20	Y20	Z20	X21	Y21	Z21	X22	Y22	Z22	X23	Y23	Z23	X24	Y24	Z24	X25	Y25	Z25	X26	Y26	Z26	X27	Y27	Z27	X28	Y28	Z28	X29	Y29	Z29	X30	Y30	Z30	X31	Y31	Z31	X32	Y32	Z32	X33	Y33	Z33	X34	Y34	Z34	X35	Y35	Z35	X36	Y36	Z36	X37	Y37	Z37	X38	Y38	Z38	X39	Y39	Z39	X40	Y40	Z40	X41	Y41	Z41	X42	Y42	Z42	X43	Y43	Z43	X44	Y44	Z44	X45	Y45	Z45	X46	Y46	Z46	X47	Y47	Z47	X48	Y48	Z48	X49	Y49	Z49	X50	Y50	Z50	X51	Y51	Z51	

131	1.30000000	-499.97954	827.20329	-397.92685	-439.06085	746.32659	-396.21101	-428.40348	418.83427	-402.43286	-483.52866	413.67065	-461.84317	-330.29547	313.99340	-376.33715	-282.74616	348.42195	-413.30488	-492.06195	860.00875	-755.32310	-440.73657	779.79744	-755.70798	-480.10357	442.73023	-767.44603	-547.11660	414.92328	-705.31611	-394.59223	352.64312	-812.97125	-334.88687	373.86872	-770.15388	-414.59349	635.10722	-393.55653	-506.86808	730.45428	-363.55009	-486.15651	617.83150	-358.61520	-526.93042	790.54427	-782.98585	-524.96769	669.24216	-798.38845	-559.22656	1105.26591	-388.20898	-509.00386	1007.71785	-400.14516	-543.03059	959.13033	-364.99940	-656.68838	1050.02889	-367.96941	-597.28696	950.20548	-381.31154	-535.82184	1111.67889	-742.22293	-464.13159	991.24202	-735.11831	-624.77244	1059.47988	-780.99712	-557.54285	944.36861	-765.85457	-569.12623	1264.96534	-439.67042	-757.97184	1328.42103	-508.22119	-574.28173	1288.06372	-684.49454	-757.64789	1338.31439	-597.25262	-567.97572	1764.59464	-541.82324	-507.20700	1760.31427	-413.92522	-489.23731	1740.19136	-660.19025	-469.14385	1659.38758	-513.58804	-468.66210	1660.33531	-556.71704	-449.70706	1726.02021	-313.95160	-491.70434	1610.10454	-128.60174	-467.98491	1676.47636	-109.33367	-377.37673	1655.43129	-138.32047	-255.89170	1565.61386	-204.75237	-247.37062	1559.70090	-154.16675	-430.65392	1700.29220	-768.44367	-433.13976	1578.30510	-941.17534	-419.52073	1657.93517	-960.26364	-340.20418	1657.74419	-954.47894	-175.95417	1598.30035	-955.98263	-186.29480	1611.20247	-1005.74149	-657.88683	1190.33223	-466.35871	-660.62455	1209.44068	-654.93595	-650.23440	1201.86517	-481.64822	-649.64879	1219.79464	-642.99248	
132	1.31000000	-486.93025	811.91904	-396.14844	-424.15022	732.40605	-394.70573	-407.85073	405.18309	-400.34783	-463.22993	400.21965	-459.35915	-308.85221	300.27538	-375.61241	-261.81695	335.20296	-412.72345	-479.06939	844.69390	-755.65331	-426.33400	765.79119	-756.02235	-456.33451	428.22717	-769.81229	-522.86550	400.00149	-707.85296	-369.71573	338.21624	-815.05813	-310.19638	359.79686	-772.11459	-397.67612	621.79919	-391.91321	-491.42616	715.48951	-361.64664	-468.68144	603.25979	-356.65341	-512.75506	774.34940	-783.30599	-507.60482	653.25902	-799.13098	-547.79998	1089.40063	-386.13123	-497.06891	991.84094	-397.66664	-531.88657	943.23630	-363.16825	-645.65619	1033.72157	-368.56141	-585.78808	933.96915	-381.20381	-522.91944	1096.37753	-741.71480	-451.32478	976.01368	-734.59930	-611.78275	1044.17968	-780.66916	-544.52242	929.10379	-765.66383	-557.44309	1249.56408	-438.69825	-745.63722	1313.26703	-507.58815	-562.09200	1273.13450	-683.72097	-745.43261	1323.42347	-597.21866	-557.33977	1749.72647	-541.04379	-496.21987	1746.07943	-414.00511	-478.01549	1726.30543	-658.84773	-458.48951	1644.06008	-512.95630	-457.90788	1645.43158	-555.95754	-441.09030	1713.08373	-312.72289	-492.44414	1604.74347	-124.58841	-467.28106	1670.90627	-106.91448	-376.56508	1646.33201	-133.28507	-257.26902	1551.33194	-195.34315	-249.25048	1545.69196	-145.17640	-422.76883	1687.58818	-768.40443	-434.71906	1571.55482	-945.50435	-418.61534	1651.16307	-962.47984	-339.17199	1647.41124	-960.57984	-177.94971	1581.68509	-973.44884	-190.43163	1596.56707	-1022.34858	-646.14812	1175.08609	-465.92066	-648.39663	1194.49603	-654.47338	-638.21350	1186.52034	-480.75479	-637.84501	1204.81396	-642.21185	
133	1.32000000	-473.64947	795.56736	-394.34763	-409.48385	717.14567	-393.09057	-388.67100	390.19418	-398.29257	-444.00988	385.48061	-457.05776	-288.93520	284.86767	-374.62844	-242.18080	320.57004	-411.56217	-465.94436	828.06255	-755.71250	-411.68850	750.43471	-756.05222	-433.61514	412.90069	-772.17486	-500.05408	384.95956	-710.29470	-346.58474	322.11440	-816.39770	-287.14449	343.82432	-773.56174	-381.42096	607.07307	-390.00363	-476.36297	699.31365	-359.85292	-451.93848	587.68513	-354.50736	-498.14010	757.34498	-784.03060	-490.25013	636.23907	-799.91930	-536.33732	1072.37330	-384.56525	-485.04048	974.92507	-395.14600	-520.63446	926.34189	-361.53599	-634.46835	1016.51914	-369.59404	-574.23316	916.91372	-380.96613	-509.53837	1079.82254	-741.23944	-438.20599	959.32689	-734.13473	-598.42280	1027.81253	-780.18994	-531.40126	912.61393	-765.39149	-545.42991	1233.18434	-437.61021	-733.11699	1296.78009	-507.07089	-549.50764	1257.02453	-683.05806	-733.35967	1307.29323	-597.59661	-546.95483	1733.96881	-540.08383	-485.41179	1730.85025	-413.86185	-467.26617	1711.70237	-657.22462	-447.81531	1627.90336	-513.10082	-447.20317	1629.50339	-554.87802	-432.89944	1699.48094	-311.16164	-494.10376	1598.48761	-121.31663	-467.53721	1664.72538	-104.55776	-376.81165	1636.39981	-128.67589	-259.66365	1536.49731	-185.76124	-252.65927	1531.45422	-135.87154	-415.20242	1673.88619	-767.85295	-437.54165	1564.45330	-949.11358	-418.67302	1643.59750	-963.73420	-339.43869	1636.34151	-966.24596	-182.15799	1565.11927	-990.73817	-196.74709	1581.73700	-1038.52532	-634.08624	1158.74889	-465.50771	-635.76247	1178.28854	-654.05283	-625.46244	1169.81323	-479.58618	-625.89417	1188.59004	-641.27486	
134	1.33000000	-460.17167	778.49089	-392.41342	-395.22689	700.53645	-391.26370	-370.74693	373.74024	-396.23329	-425.97072	369.41873	-454.82876	-270.63623	268.29363	-373.13351	-223.93758	304.52346	-409.75033	-452.55021	810.36372	-755.94014	-396.69695	734.04109	-756.11042	-412.26928	396.68690	-774.40150	-478.77625	369.28834	-712.55761	-325.11112	304.74417	-817.29607	-265.76564	326.46611	-774.52230	-365.87005	590.85688	-387.83062	-461.83639	681.75099	-358.31623	-436.22679	570.94678	-352.30451	-483.03882	739.50459	-784.88341	-472.68455	618.59582	-801.18231	-524.75124	1054.25840	-383.39312	-472.71956	957.24468	-392.78810	-509.21264	908.24915	-360.64133	-622.98639	998.48012	-370.59070	-562.41658	899.06786	-380.61125	-495.52878	1062.16144	-740.78020	-424.65578	941.43106	-733.81905	-584.69725	1010.44977	-779.60125	-517.96679	895.06328	-765.14221	-532.95644	1215.78552	-436.54030	-720.44090	1278.94895	-506.78233	-536.57461	1239.84859	-682.29993	-721.07370	1289.76460	-597.68941	-536.65183	1717.19764	-538.56415	-474.87691	1714.61030	-413.44459	-456.96281	1696.24254	-655.31141	-437.13228	1610.80615	-513.71566	-436.54587	1612.67820	-553.67755	-425.29277	1685.09264	-309.30814	-496.78380	1591.23275	-118.74086	-468.81032	1657.48731	-102.54553	-378.18375	1625.56340	-124.30669	-262.99148	1520.91178	-176.87714	-257.76944	1516.98705	-125.97170	-407.64218	1659.23405	-767.41808	-441.67746	1556.49643	-951.95271	-419.91991	1635.21108	-964.50013	-341.31890	1624.46036	-971.48422	-188.74009	1548.50755	-1007.62462	-205.54377	1566.77204	-1053.87870	-621.49833	1141.22901	-465.04741	-622.65059	1160.87137	-653.58601	-612.23456	1151.93875	-478.48504	-613.36192	1171.19519	-640.32993	
135	1.34000000	-446.80875	760.32656	-390.80200	-381.26590	682.56615	-389.17641	-354.15738	356.01760	-394.14767	-409.27640	351.93285	-452.62141	-254.03710	250.84759	-370.97282	-207.24370	287.10124	-407.24086	-438.69804	791.70124	-756.26706	-381.21459	716.70593	-756.25634	-392.56773	379.38254	-776.24776	-459.01293	352.37495	-714.51004	-305.03485	286.44226	-817.83825	-245.91596	308.31508	-775.03150	-350.98731	573.14483	-385.55400	-447.88753	663.11416	-356.68450	-421.40136	552.66285	-350.26795	-467.33405	720.88933	-785.50107	-454.98707	600.40342	-802.64424	-512.78770	1035.41233	-382.26969	-460.00212	938.74982	-390.58379	-497.42025	889.18520	-360.16277	-611.05746	979.62217	-371.36457	-550.09160	880.33615	-380.30323	-480.93340	1043.66189	-740.19679	-410.62610	922.70899	-733.69773	-570.47879	992.28043	-779.16601	-503.99728	876.71454	-765.10481	-519.99018	1197.37566	-435.75401	-707.64466	1259.89250	-506.72901	-523.38667	1221.73375	-681.49721	-708.22628	1270.83871	-597.37435	-526.32291	1699.39349	-536.68678	-464.61814	1697.35758	-412.76376	-446.86753	1679.81034	-653.54576	-426.04098	1593.11325	-513.18863	-425.69435	1594.89075	-552.58912	-418.23680	1669.54513	-307.35967	-500.61544	1582.67667	-117.04839	-471.10199	1648.56327	-101.48435	-380.68698	1613.69834	-119.97711	-267.67293	1504.35366	-169.15628	-263.96271	1501.82070	-116.60522	-400.43657	1643.78097	-767.18701	-447.44308	1547.26402	-953.94773	-422.75816	1625.63120	-964.65658	-345.23132	1611.79396	-976.13407	-197.92329	1532.10367	-1023.64563	-216.90559	1551.93332	-1068.25256	-608.30975	1122.54085	-464.65271	-609.07991	1142.36003	-653.17481	-598.91007	1133.18535	-477.90546	-599.94790	1152.72662	-639.72527	
136	1.35000000	-433.73591	740.36342	-389.78638	-367.31620	663.42488	-387.04544	-339.10059	337.47101	-391.92095	-394.00704	333.18923	-450.41111	-239.29348	232.40357	-367.90754	-192.21326	268.18060	-403.99039	-424.04245	772.39089	-756.54700	-365.09588	698.35786	-756.32797	-374.33029	360.89850	-777.63321	-440.65992	334.07856	-716.12300	-286.20377	267.35672	-817.93958	-227.37320	289.60512	-774.99086	-336.69817	554.02437	-383.22443	-434.28119	643.82992	-354.91298	-407.19445	532.95470	-348.58569	-450.92377	701.88917	-786.11848	-437.38576	581.61114	-803.94073	-500.34387	1016.00169	-381.12796	-446.82969	919.40598	-388.55792	-484.99475	869.65360	-359.40312	-598.53513	959.84672	-372.14868	-537.09277	860.60046	-380.28006	-465.87747	1024.53024	-739.49607	-395.92543	903.40037	-733.51538	-555.59283	973.44554	-778.92632	-489.27183	857.73456	-765.24621	-506.87827	1178.15173	-435.27037	-694.80013	1239.78016	-506.81840	-510.00044	1202.77435	-680.88159	-695.17119	1250.69329	-597.22679	-515.89981	1680.50021	-534.99153	-454.36641	1678.95396	-411.89963	-436.76629	1662.21369	-652.08186	-414.20675	1575.05053	-511.07885	-414.44283	1575.97427	-551.79286	-411.59408	1652.65110	-305.19707	-505.54748	1572.60031	-116.33719	-474.48911	1637.81931	-101.42577	-384.36071	1600.58383	-115.64482	-273.87502	1486.88296	-161.89361	-271.06864	1485.65881	-108.10334	-393.94221	1627.45434	-767.08255	-455.09624	1536.63905	-954.93016	-427.45354	1614.39934	-964.01664	-351.39198	1598.31016	-980.41560	-209.73637	1516.04352	-1038.58565	-230.61564	1537.34694	-1081.63420	-594.79422	1102.88991	-464.44555	-595.21374	1122.86766	-652.95186	-585.49853	1113.74222	-477.61116	-586.16329	1133.26804	-639.36493	
